<svg width="200" height="49" viewBox="0 0 200 49" fill="none" xmlns="http://www.w3.org/2000/svg">
<g id="Frame">
<path id="Vector" d="M40.1848 15.4796V31.7257C40.1848 32.3628 40.3489 32.8407 40.6771 33.1592C41.0053 33.4579 41.5079 33.6072 42.1848 33.6072H49.7848L49.9387 35.9067C48.5643 36.0063 47.1695 36.066 45.7541 36.0859C44.3387 36.1058 42.9233 36.1158 41.5079 36.1158C39.9489 36.1158 38.831 35.7474 38.1541 35.0108C37.4771 34.2542 37.1387 33.3085 37.1387 32.1737V15.4796H40.1848ZM55.7104 21.5122V31.6063C55.7104 32.4823 55.8847 33.0995 56.2334 33.4579C56.5822 33.8162 57.1668 33.9954 57.9873 33.9954C58.7873 33.9954 59.577 33.8162 60.3565 33.4579C61.1565 33.0995 62.1206 32.5719 63.2488 31.8751L63.5873 33.7565C62.4386 34.6524 61.3104 35.3293 60.2027 35.7873C59.1155 36.2452 58.0078 36.4741 56.8796 36.4741C54.1309 36.4741 52.7565 35.1402 52.7565 32.4723V21.5122H55.7104ZM65.9258 21.5122V36.0859H63.5258L63.2488 33.3085L62.9411 32.8606V21.5122H65.9258ZM88.9478 21.1538C90.2606 21.1538 91.2555 21.4923 91.9324 22.1692C92.6299 22.8461 92.9786 23.8416 92.9786 25.1556V36.0859H90.0248V25.9918C90.0248 25.1556 89.8504 24.5484 89.5017 24.1701C89.1735 23.7719 88.6094 23.5728 87.8094 23.5728C87.3171 23.5728 86.8453 23.6525 86.394 23.8117C85.9427 23.971 85.4401 24.2199 84.8863 24.5583C84.3324 24.8769 83.6658 25.3149 82.8863 25.8724L82.7324 23.9312C83.7991 22.9954 84.835 22.2986 85.8401 21.8407C86.8453 21.3828 87.8812 21.1538 88.9478 21.1538ZM72.9478 21.5122L73.1632 24.3194L73.4709 24.7375V36.0859H70.517V21.5122H72.9478ZM79.194 21.1538C80.4863 21.1538 81.4709 21.4923 82.1478 22.1692C82.8248 22.8262 83.1735 23.8217 83.194 25.1556V36.0859H80.3324V25.9918C80.3324 25.1158 80.1478 24.4986 79.7786 24.1402C79.4094 23.762 78.8555 23.5728 78.117 23.5728C77.6247 23.5728 77.1529 23.6525 76.7017 23.8117C76.2504 23.9511 75.7376 24.19 75.1632 24.5285C74.6094 24.847 73.9324 25.295 73.1324 25.8724L72.9478 23.9312C74.0145 22.9954 75.0504 22.2986 76.0555 21.8407C77.0606 21.3828 78.1068 21.1538 79.194 21.1538ZM100.546 21.5122V36.0859H97.6234V21.5122H100.546ZM99.7772 15.2706C100.372 15.2706 100.67 15.5593 100.67 16.1366V17.8389C100.67 18.4163 100.372 18.705 99.7772 18.705H98.3926C97.7977 18.705 97.5003 18.4163 97.5003 17.8389V16.1366C97.5003 15.5593 97.7977 15.2706 98.3926 15.2706H99.7772ZM114.667 21.1538C117.396 21.1538 118.76 22.4878 118.76 25.1556V36.0859H115.775V25.9918C115.775 25.076 115.621 24.4488 115.313 24.1104C115.006 23.752 114.483 23.5728 113.744 23.5728C112.862 23.5728 111.98 23.7819 111.098 24.2C110.216 24.5982 109.16 25.1556 107.929 25.8724L107.806 23.9312C108.955 23.0353 110.103 22.3484 111.252 21.8706C112.401 21.3927 113.539 21.1538 114.667 21.1538ZM107.744 21.5122L108.021 24.3194L108.237 24.7375V36.0859H105.283V21.5122H107.744ZM130.512 21.1538C131.661 21.1538 132.625 21.3031 133.404 21.6018C134.204 21.8805 134.799 22.3683 135.189 23.0651C135.599 23.762 135.804 24.7176 135.804 25.9321V36.0859H133.466L133.004 32.9203L132.82 32.5619V25.9321C132.82 25.076 132.614 24.4588 132.204 24.0805C131.794 23.7022 131.014 23.5131 129.866 23.5131C129.086 23.5131 128.102 23.5529 126.912 23.6325C125.743 23.7122 124.584 23.7918 123.435 23.8715L123.159 21.8108C123.856 21.6914 124.625 21.5819 125.466 21.4823C126.328 21.3828 127.2 21.3031 128.082 21.2434C128.963 21.1837 129.773 21.1538 130.512 21.1538ZM134.45 27.0968L134.42 29.1276L127.343 29.1574C126.646 29.1773 126.153 29.3565 125.866 29.695C125.6 30.0135 125.466 30.4615 125.466 31.0389V31.9348C125.466 32.6515 125.641 33.1791 125.989 33.5176C126.359 33.8361 126.933 33.9954 127.712 33.9954C128.286 33.9954 128.922 33.8959 129.62 33.6968C130.337 33.4778 131.055 33.1592 131.773 32.7411C132.491 32.3031 133.137 31.7556 133.712 31.0986V32.98C133.507 33.2588 133.199 33.5972 132.789 33.9954C132.379 34.3737 131.876 34.742 131.281 35.1004C130.707 35.4587 130.061 35.7574 129.343 35.9963C128.645 36.2352 127.876 36.3547 127.035 36.3547C126.133 36.3547 125.333 36.2054 124.635 35.9067C123.959 35.5882 123.425 35.1302 123.035 34.533C122.646 33.9158 122.451 33.1692 122.451 32.2931V30.7104C122.451 29.5755 122.82 28.6895 123.559 28.0524C124.317 27.4153 125.364 27.0968 126.697 27.0968H134.45ZM145.139 15.4796V36.0859H142.062V15.4796H145.139ZM151.908 15.4796V18.0479H135.323V15.4796H151.908ZM157.866 21.1538C160.184 21.1538 161.855 21.562 162.881 22.3782C163.927 23.1746 164.45 24.3592 164.45 25.9321C164.471 27.2461 164.173 28.2615 163.558 28.9782C162.963 29.695 161.989 30.0533 160.635 30.0533H151.958V27.9927H159.866C160.543 27.9927 160.984 27.7837 161.189 27.3656C161.394 26.9475 161.496 26.4696 161.496 25.9321C161.476 25.0362 161.199 24.3991 160.666 24.0208C160.153 23.6425 159.261 23.4534 157.989 23.4534C156.943 23.4534 156.122 23.6027 155.527 23.9013C154.932 24.2 154.512 24.7176 154.266 25.4543C154.04 26.1909 153.927 27.2262 153.927 28.5601C153.927 30.0533 154.071 31.1981 154.358 31.9945C154.666 32.771 155.148 33.3085 155.804 33.6072C156.481 33.9058 157.373 34.0551 158.481 34.0551C159.261 34.0551 160.132 34.0253 161.096 33.9655C162.081 33.8859 162.973 33.7963 163.773 33.6968L164.081 35.5782C163.589 35.7773 162.994 35.9465 162.297 36.0859C161.599 36.2054 160.881 36.2949 160.143 36.3547C159.404 36.4144 158.727 36.4443 158.112 36.4443C156.348 36.4443 154.932 36.1854 153.866 35.6678C152.799 35.1502 152.02 34.3339 151.527 33.2189C151.035 32.0841 150.789 30.6008 150.789 28.7692C150.789 26.8579 151.035 25.3448 151.527 24.2298C152.02 23.1149 152.789 22.3285 153.835 21.8706C154.881 21.3927 156.225 21.1538 157.866 21.1538ZM174.726 21.1538C175.198 21.1538 175.711 21.1737 176.264 21.2135C176.839 21.2534 177.423 21.323 178.018 21.4226C178.634 21.5221 179.198 21.6715 179.711 21.8706L179.341 23.7221C178.623 23.6624 177.885 23.6226 177.126 23.6027C176.388 23.5629 175.752 23.543 175.218 23.543C174.07 23.543 173.157 23.7022 172.48 24.0208C171.823 24.3194 171.352 24.847 171.064 25.6036C170.777 26.3601 170.634 27.4153 170.634 28.7692C170.634 30.123 170.777 31.1882 171.064 31.9646C171.352 32.7411 171.823 33.2787 172.48 33.5773C173.157 33.8759 174.07 34.0253 175.218 34.0253C175.526 34.0253 175.926 34.0153 176.418 33.9954C176.911 33.9755 177.444 33.9456 178.018 33.9058C178.593 33.866 179.147 33.8063 179.68 33.7266L179.957 35.6379C179.198 35.9167 178.357 36.1158 177.434 36.2352C176.511 36.3746 175.598 36.4443 174.695 36.4443C172.931 36.4443 171.516 36.1954 170.449 35.6977C169.403 35.1999 168.644 34.3936 168.172 33.2787C167.7 32.1637 167.464 30.6606 167.464 28.7692C167.464 26.8977 167.7 25.4045 168.172 24.2896C168.664 23.1746 169.434 22.3783 170.48 21.9004C171.547 21.4027 172.962 21.1538 174.726 21.1538ZM192.762 21.1538C195.49 21.1538 196.854 22.4878 196.854 25.1556V36.0859H193.839V25.9918C193.839 25.076 193.685 24.4488 193.377 24.1104C193.09 23.752 192.577 23.5728 191.839 23.5728C190.957 23.5728 190.075 23.7719 189.193 24.1701C188.311 24.5484 187.254 25.1158 186.023 25.8724L185.87 23.9611C187.018 23.085 188.167 22.3982 189.316 21.9004C190.485 21.4027 191.634 21.1538 192.762 21.1538ZM186.331 15.181L186.362 20.8253C186.362 21.5022 186.331 22.1393 186.27 22.7366C186.229 23.3339 186.147 23.8615 186.023 24.3194L186.331 24.7375V36.0859H183.377V15.181H186.331Z" fill="#09152B"/>
<g id="Clip path group">
<mask id="mask0_197_1259" style="mask-type:luminance" maskUnits="userSpaceOnUse" x="0" y="9" width="29" height="34">
<g id="clip0_1255_24430">
<path id="Vector_2" d="M28.2051 9.95472H0V42.3076H28.2051V9.95472Z" fill="white"/>
</g>
</mask>
<g mask="url(#mask0_197_1259)">
<g id="Group">
<path id="Vector_3" d="M10.5768 16.3401C10.5768 15.6348 10.1033 15.063 9.51912 15.063C8.93497 15.063 8.46143 15.6348 8.46143 16.3401V35.9221C8.46143 36.6274 8.93497 37.1992 9.51912 37.1992C10.1033 37.1992 10.5768 36.6274 10.5768 35.9221V16.3401Z" fill="#09152B"/>
<path id="Vector_4" d="M19.0382 16.3401C19.0382 15.6348 18.5646 15.063 17.9805 15.063C17.3964 15.063 16.9229 15.6348 16.9229 16.3401V35.9221C16.9229 36.6274 17.3964 37.1992 17.9805 37.1992C18.5646 37.1992 19.0382 36.6274 19.0382 35.9221V16.3401Z" fill="#09152B"/>
<path id="Vector_5" d="M6.34634 19.7457C6.34634 19.0403 5.87279 18.4685 5.28865 18.4685C4.7045 18.4685 4.23096 19.0403 4.23096 19.7457V32.5165C4.23096 33.2218 4.7045 33.7936 5.28865 33.7936C5.87279 33.7936 6.34634 33.2218 6.34634 32.5165V19.7457Z" fill="#09152B"/>
<path id="Vector_6" d="M23.2692 19.7457C23.2692 19.0403 22.7956 18.4685 22.2115 18.4685C21.6274 18.4685 21.1538 19.0403 21.1538 19.7457V32.5165C21.1538 33.2218 21.6274 33.7936 22.2115 33.7936C22.7956 33.7936 23.2692 33.2218 23.2692 32.5165V19.7457Z" fill="#09152B"/>
<path id="Vector_7" d="M2.11539 24.854C2.11539 24.1487 1.64184 23.5769 1.05769 23.5769C0.473545 23.5769 0 24.1487 0 24.854V27.4081C0 28.1134 0.473545 28.6852 1.05769 28.6852C1.64184 28.6852 2.11539 28.1134 2.11539 27.4081V24.854Z" fill="#09152B"/>
<path id="Vector_8" d="M27.5002 24.854C27.5002 24.1487 27.0266 23.5769 26.4425 23.5769C25.8584 23.5769 25.3848 24.1487 25.3848 24.854V27.4081C25.3848 28.1134 25.8584 28.6852 26.4425 28.6852C27.0266 28.6852 27.5002 28.1134 27.5002 27.4081V24.854Z" fill="#09152B"/>
<path id="Vector_9" d="M14.8078 11.2318C14.8078 10.5265 14.3342 9.95473 13.7501 9.95473C13.166 9.95473 12.6924 10.5265 12.6924 11.2318V41.0306C12.6924 41.7359 13.166 42.3076 13.7501 42.3076C14.3342 42.3076 14.8078 41.7359 14.8078 41.0306V11.2318Z" fill="#09152B"/>
</g>
</g>
</g>
</g>
</svg>
